# Blender v2.82 (sub 7) OBJ File: 'untitled.blend'
# www.blender.org
o Cube.007_Cube.009
v -1.281125 0.036108 2.867266
v 1.613502 0.034605 2.873716
v -1.519084 -0.360952 -5.971762
v -1.711713 -0.091366 -6.362095
v -1.137040 -0.312756 -1.193296
v -1.308518 -0.048750 -0.990887
v -1.451438 -0.284453 -0.536568
v -1.653262 -0.009457 -0.270477
v -1.024527 -0.181233 4.300337
v -1.165444 0.117467 5.120184
v 1.855059 -0.362176 -5.972794
v 2.045739 -0.093210 -6.364286
v 1.471925 -0.313809 -1.191698
v 1.640708 -0.050416 -0.987776
v 1.786820 -0.285710 -0.534212
v 1.986450 -0.011383 -0.265984
v 1.359346 -0.182125 4.304396
v 1.497716 0.116170 5.127893
v -1.549941 -0.450375 -7.732513
v -3.171701 0.371721 -5.635422
v -1.369213 -0.288579 3.837275
v -1.988416 0.615031 8.392973
v 1.888268 -0.452214 -7.729776
v 3.508668 0.366009 -5.593536
v 1.709212 -0.289685 3.845655
v 2.322927 0.613553 8.424017
v -1.718253 -0.348915 -5.853939
v -2.379074 -0.033042 -5.922064
v -2.331411 0.044131 -0.555099
v -1.685392 -0.268760 -0.429440
v -2.291999 0.052229 -0.021305
v -1.840682 0.170371 5.245058
v -1.690584 -0.278454 -0.928974
v -1.471995 -0.154586 4.453989
v 2.179314 0.169048 5.256308
v 1.812072 -0.155448 4.460878
v 2.672368 0.042442 -0.547825
v 2.031103 -0.279526 -0.924444
v 2.632727 0.050553 -0.013535
v 2.025951 -0.269819 -0.424587
v 2.720188 -0.034729 -5.920763
v 2.058551 -0.350000 -5.852629
v -1.075876 -0.348272 1.868452
v 1.411392 -0.349505 1.870304
v 1.663605 -0.023332 -6.457546
v 1.381433 -0.472346 -7.763382
v -1.331849 -0.021384 -6.478487
v -1.045459 -0.470963 -7.765177
vn 0.0013 0.9334 -0.3589
vn -0.8765 0.4813 -0.0077
vn -0.8109 -0.5809 0.0707
vn -0.0780 -0.9969 0.0138
vn 0.3075 0.8471 0.4333
vn -0.7895 -0.6078 0.0858
vn -0.0846 -0.9960 0.0296
vn 0.3256 -0.5232 0.7876
vn 0.8583 -0.5085 0.0687
vn 0.0774 -0.9969 0.0138
vn -0.3528 0.8327 0.4268
vn 0.7917 -0.6048 0.0860
vn 0.0717 -0.9970 0.0301
vn -0.2629 -0.5335 0.8039
vn -0.0004 -0.9995 0.0303
vn -0.0017 -0.9809 0.1943
vn 0.4383 -0.8986 0.0220
vn 0.0005 0.9998 -0.0176
vn -0.5385 -0.8375 0.0930
vn 0.0035 0.9092 -0.4163
vn 0.0552 0.9981 -0.0257
vn 0.0024 0.9254 -0.3790
vn -0.3531 -0.9353 0.0218
vn -0.4321 -0.9018 0.0100
vn -0.0007 0.9260 -0.3774
vn 0.0517 0.9986 -0.0146
vn -0.0545 0.9982 -0.0258
vn 0.7139 -0.6965 0.0727
vn 0.4310 -0.9023 0.0100
vn 0.3425 0.3416 -0.8752
vn -0.0512 0.9986 -0.0146
vn -0.3434 0.3347 -0.8775
vn 0.8378 0.5460 -0.0043
vn -0.0007 -1.0000 0.0062
vn 0.0007 0.9339 -0.3576
vn -0.8410 0.5410 -0.0043
vn -0.8559 -0.5126 0.0683
vn -0.0840 -0.9963 0.0151
vn 0.3539 0.8324 0.4264
vn -0.7645 -0.6395 0.0811
vn -0.0726 -0.9969 0.0300
vn 0.2640 -0.5277 0.8074
vn 0.8139 -0.5766 0.0711
vn 0.0833 -0.9964 0.0151
vn -0.3065 0.8476 0.4331
vn 0.7664 -0.6372 0.0813
vn 0.0839 -0.9960 0.0296
vn -0.3239 -0.5303 0.7835
vn -0.0987 -0.9950 0.0155
vn -0.0400 -0.9991 0.0126
vn 0.0389 -0.9992 0.0126
vn 0.0972 -0.9951 0.0155
vn -0.0005 -0.9995 0.0302
vn -0.0009 -0.9811 0.1937
vn 0.5312 -0.8419 0.0949
vn 0.4475 -0.8941 0.0168
vn 0.6776 -0.7339 0.0468
vn 0.6536 -0.7545 0.0599
vn 0.3526 -0.9355 0.0218
vn 0.4417 -0.8960 0.0464
vn 0.0010 0.9998 -0.0174
vn -0.7144 -0.6960 0.0723
vn -0.4499 -0.8929 0.0168
vn -0.6551 -0.7531 0.0598
vn -0.6655 -0.7428 0.0737
vn -0.0463 0.9441 -0.3264
vn -0.0163 0.9466 -0.3220
vn 0.0174 0.9451 -0.3263
vn 0.0497 0.9423 -0.3310
vn 0.0034 0.9090 -0.4168
vn 0.0506 0.9984 -0.0258
vn -0.0651 0.9339 -0.3515
vn -0.5217 -0.8476 0.0972
vn -0.4427 -0.8955 0.0463
vn -0.6770 -0.7345 0.0468
vn -0.4393 -0.8981 0.0220
vn -0.2969 -0.9547 0.0180
vn -0.3848 -0.9229 0.0154
vn -0.4558 -0.8901 -0.0036
vn 0.0658 0.9346 -0.3496
vn 0.0550 0.9984 -0.0145
vn -0.0499 0.9984 -0.0258
vn 0.5384 -0.8376 0.0931
vn 0.6659 -0.7424 0.0740
vn 0.4541 -0.8909 -0.0032
vn 0.3848 -0.9229 0.0153
vn 0.2968 -0.9548 0.0180
vn 0.3737 0.4062 -0.8339
vn -0.0543 0.9984 -0.0145
vn -0.3751 0.3982 -0.8371
vn 0.8736 0.4866 -0.0077
vn -0.0005 -1.0000 0.0062
s off
f 2//1 43//1 1//1
f 45//2 44//2 2//2
f 6//3 3//3 5//3
f 6//4 28//4 4//4
f 4//5 27//5 3//5
f 8//6 9//6 10//6
f 8//7 32//7 31//7
f 8//8 30//8 7//8
f 14//9 11//9 12//9
f 41//10 14//10 12//10
f 12//11 42//11 41//11
f 17//12 16//12 18//12
f 16//13 35//13 18//13
f 16//14 40//14 39//14
f 44//15 25//15 21//15
f 21//16 26//16 22//16
f 38//17 37//17 40//17
f 24//18 22//18 26//18
f 32//19 34//19 22//19
f 45//20 47//20 20//20
f 34//21 7//21 30//21
f 10//22 34//22 32//22
f 30//23 33//23 21//23
f 27//24 28//24 19//24
f 36//25 18//25 35//25
f 33//26 3//26 27//26
f 15//27 36//27 40//27
f 39//28 24//28 26//28
f 23//29 41//29 42//29
f 38//30 14//30 37//30
f 11//31 38//31 42//31
f 6//32 33//32 29//32
f 47//33 43//33 48//33
f 45//34 1//34 47//34
f 2//35 44//35 43//35
f 45//36 46//36 44//36
f 6//37 4//37 3//37
f 6//38 29//38 28//38
f 4//39 28//39 27//39
f 8//40 7//40 9//40
f 8//41 10//41 32//41
f 8//42 31//42 30//42
f 14//43 13//43 11//43
f 41//44 37//44 14//44
f 12//45 11//45 42//45
f 17//46 15//46 16//46
f 16//47 39//47 35//47
f 16//48 15//48 40//48
f 21//49 19//49 43//49
f 19//50 48//50 43//50
f 46//51 23//51 44//51
f 23//52 25//52 44//52
f 21//53 43//53 44//53
f 21//54 25//54 26//54
f 36//55 26//55 25//55
f 37//56 41//56 24//56
f 40//57 36//57 25//57
f 37//58 24//58 39//58
f 40//59 25//59 38//59
f 37//60 39//60 40//60
f 24//61 20//61 22//61
f 22//62 20//62 31//62
f 20//63 28//63 29//63
f 29//64 31//64 20//64
f 31//65 32//65 22//65
f 24//66 23//66 45//66
f 23//67 46//67 45//67
f 48//68 19//68 47//68
f 19//69 20//69 47//69
f 24//70 45//70 20//70
f 34//71 9//71 7//71
f 10//72 9//72 34//72
f 21//73 22//73 34//73
f 30//74 31//74 29//74
f 21//75 34//75 30//75
f 30//76 29//76 33//76
f 19//77 21//77 33//77
f 19//78 33//78 27//78
f 28//79 20//79 19//79
f 36//80 17//80 18//80
f 33//81 5//81 3//81
f 15//82 17//82 36//82
f 26//83 36//83 35//83
f 35//84 39//84 26//84
f 23//85 24//85 41//85
f 42//86 38//86 23//86
f 38//87 25//87 23//87
f 38//88 13//88 14//88
f 11//89 13//89 38//89
f 6//90 5//90 33//90
f 47//91 1//91 43//91
f 45//92 2//92 1//92
